<svg xmlns="http://www.w3.org/2000/svg" xmlns:xlink="http://www.w3.org/1999/xlink" width="1280" zoomAndPan="magnify" viewBox="0 0 960 540.000001" height="720" preserveAspectRatio="xMidYMid meet" version="1.0"><path fill="#ffffff" d="M 469.144531 26.652344 C 428.71875 29.269531 386.273438 43.792969 352.734375 66.476562 C 317.328125 90.433594 289.253906 122.773438 271.0625 160.503906 C 261.105469 181.164062 254.890625 200.628906 250.625 224.585938 C 247.40625 242.550781 246.730469 269.652344 248.976562 290.460938 C 251.972656 318.460938 262.226562 352 276.078125 379.398438 L 280.046875 387.109375 L 270.835938 414.582031 C 265.746094 429.703125 256.539062 457.253906 250.324219 475.820312 C 244.035156 494.460938 238.945312 510.179688 238.945312 510.929688 C 238.945312 511.601562 239.917969 512.574219 241.117188 513.023438 C 243.0625 513.773438 243.289062 514.074219 242.914062 516.394531 C 242.464844 518.789062 242.539062 518.9375 244.261719 518.414062 C 247.332031 517.441406 314.332031 496.105469 342.628906 486.972656 C 357.453125 482.257812 370.179688 478.363281 370.925781 478.363281 C 371.601562 478.363281 374.820312 479.636719 378.039062 481.285156 C 405.4375 495.058594 434.632812 503.292969 465.703125 506.136719 C 477.980469 507.1875 502.980469 506.660156 515.035156 504.941406 C 586.453125 495.058594 647.242188 455.605469 684.671875 395.042969 C 696.875 375.28125 708.476562 347.730469 714.691406 323.777344 C 720.605469 300.792969 723.449219 272.269531 721.878906 250.261719 C 717.835938 191.792969 695.226562 139.992188 655.925781 99.265625 C 617.820312 59.8125 569.308594 35.410156 514.0625 28 C 505.976562 26.949219 477.980469 26.050781 469.144531 26.652344 Z M 498.414062 77.855469 C 525.140625 80.027344 547.074219 85.941406 570.207031 97.246094 C 601.574219 112.667969 627.851562 135.722656 647.316406 165.070312 C 662.289062 187.601562 671.496094 211.859375 675.089844 238.359375 C 676.808594 250.933594 676.808594 276.386719 675.089844 289.265625 C 662.886719 379.773438 588.175781 449.542969 497.515625 455.230469 C 465.550781 457.179688 435.832031 451.9375 406.785156 439.210938 C 398.777344 435.691406 385.523438 428.507812 381.40625 425.511719 C 380.136719 424.539062 378.488281 423.714844 377.738281 423.714844 C 377.066406 423.714844 361.121094 428.582031 342.40625 434.570312 C 323.6875 440.558594 308.269531 445.425781 308.191406 445.277344 C 308.042969 445.125 312.835938 430.527344 318.75 412.859375 C 324.664062 395.117188 329.527344 379.773438 329.527344 378.574219 C 329.527344 377.375 328.179688 374.605469 326.234375 371.835938 C 294.941406 326.996094 284.761719 265.085938 299.957031 212.605469 C 303.328125 201.226562 306.097656 194.265625 311.5625 183.410156 C 326.535156 154.140625 349.367188 128.613281 377.441406 109.898438 C 412.847656 86.242188 457.09375 74.5625 498.414062 77.855469 Z M 498.414062 77.855469 " fill-opacity="1" fill-rule="nonzero"/><path fill="#ffffff" d="M 399.375 147.027344 C 397.652344 147.550781 395.183594 148.75 393.757812 149.574219 C 389.941406 151.96875 378.863281 163.796875 375.417969 169.1875 C 364.414062 186.328125 361.945312 209.164062 368.53125 231.472656 C 373.546875 248.316406 379.6875 261.191406 390.914062 278.558594 C 405.136719 300.417969 414.347656 312.246094 429.09375 327.445312 C 451.253906 350.277344 469.894531 363.078125 498.492188 374.980469 C 519.601562 383.8125 535.171875 388.828125 543.929688 389.726562 C 549.996094 390.328125 563.246094 388.230469 571.03125 385.386719 C 581.8125 381.492188 594.164062 372.808594 598.953125 365.773438 C 603.746094 358.585938 608.6875 342.339844 609.285156 331.5625 L 609.734375 324.449219 L 607.414062 321.753906 C 605.765625 319.957031 599.03125 315.914062 585.40625 308.578125 C 553.066406 291.210938 548.949219 289.5625 543.855469 292.257812 C 542.585938 292.859375 537.792969 297.722656 533.300781 302.964844 C 519.976562 318.460938 517.207031 321.15625 514.960938 321.15625 C 512.117188 321.15625 493.476562 311.648438 484.792969 305.808594 C 474.683594 298.921875 468.097656 293.382812 459.789062 284.773438 C 449.90625 274.515625 439.199219 259.84375 433.210938 248.390625 L 431.863281 245.695312 L 437.253906 239.78125 C 444.367188 232.21875 447.285156 227.652344 450.128906 219.71875 C 453.050781 211.632812 452.898438 209.164062 448.632812 198.007812 C 444.816406 188.050781 441.746094 179.816406 436.429688 165.519531 C 432.089844 153.765625 428.871094 148.972656 424.378906 147.550781 C 420.109375 146.277344 402.894531 145.90625 399.375 147.027344 Z M 399.375 147.027344 " fill-opacity="1" fill-rule="nonzero"/></svg>